<?xml version="1.0" encoding="UTF-8" standalone="no"?>
<!-- Created with Inkscape (http://www.inkscape.org/) -->

<svg
   xmlns:dc="http://purl.org/dc/elements/1.1/"
   xmlns:cc="http://creativecommons.org/ns#"
   xmlns:rdf="http://www.w3.org/1999/02/22-rdf-syntax-ns#"
   xmlns:svg="http://www.w3.org/2000/svg"
   xmlns="http://www.w3.org/2000/svg"
   xmlns:sodipodi="http://sodipodi.sourceforge.net/DTD/sodipodi-0.dtd"
   xmlns:inkscape="http://www.inkscape.org/namespaces/inkscape"
   width="150mm"
   height="150mm"
   viewBox="0 0 150 150"
   version="1.1"
   id="svg8"
   inkscape:version="0.92.2 2405546, 2018-03-11"
   sodipodi:docname="drawing.svg">
  <defs
     id="defs2" />
  <sodipodi:namedview
     id="base"
     pagecolor="#ffffff"
     bordercolor="#666666"
     borderopacity="1.0"
     inkscape:pageopacity="0.0"
     inkscape:pageshadow="2"
     inkscape:zoom="3.28"
     inkscape:cx="230.29863"
     inkscape:cy="311.8826"
     inkscape:document-units="mm"
     inkscape:current-layer="layer1"
     showgrid="true"
     inkscape:window-width="1920"
     inkscape:window-height="1060"
     inkscape:window-x="0"
     inkscape:window-y="20"
     inkscape:window-maximized="1">
    <inkscape:grid
       type="xygrid"
       id="grid29"
       units="mm"
       spacingx="0.99999999"
       spacingy="0.99999999"
       empcolor="#0ab000"
       empopacity="0.36078431" />
  </sodipodi:namedview>
  <metadata
     id="metadata5">
    <rdf:RDF>
      <cc:Work
         rdf:about="">
        <dc:format>image/svg+xml</dc:format>
        <dc:type
           rdf:resource="http://purl.org/dc/dcmitype/StillImage" />
        <dc:title></dc:title>
      </cc:Work>
    </rdf:RDF>
  </metadata>
  <g
     inkscape:label="Layer 1"
     inkscape:groupmode="layer"
     id="layer1"
     transform="translate(0,-147)">
    <path
       id="path74"
       style="fill:none;stroke:#000000;stroke-width:0.26458332px;stroke-linecap:butt;stroke-linejoin:miter;stroke-opacity:1"
       d="m 115,232 c 2,0 2,2 2,2 v 6 c 0,2 -2,2 -2,2 h -3 c -6,0 -32.429273,-0.003 -47.000001,0 m -54.9999991,0 54.9999991,0 M 9.9999997,232 c -1.9999999,0 -1.9999999,2 -1.9999999,2 v 6 c 0,2 1.9999999,2 1.9999999,2 M 115,232 H 93.999999 M 9.9999999,232 H 50.999998 m 29.000001,-50 c 6.999999,0 6.999998,7 6.999998,7 v 36 c 0,7 7.000002,7 7.000002,7 m -29,-50 C 58,182 58,189 58,189 v 36 c 0,7 -7.000002,7 -7.000002,7 m 14.000001,0 v -50 m 0,50 15,3 m 0,-53 v 53"
       inkscape:connector-curvature="0"
       sodipodi:nodetypes="ccscccccccscccccccscccsccccccc" />
  </g>
</svg>
